<svg width="24" height="24" xmlns="http://www.w3.org/2000/svg"><path d="M12.002 2c4.384 0 8.007 3.229 8.586 7.42a2.001 2.001 0 011.37 2.333 9.332 9.332 0 01-9.069 10.244l-.22.003h-.667c-.92 0-1.666-.448-1.666-1s.745-1 1.666-1c.695 0 1.291.256 1.541.619a8 8 0 007.106-7.393 1.95 1.95 0 01-.423.095 8.625 8.625 0 01-1.999 3.26c-.64.654-1.38.268-.816-.736.232-.414.42-.86.497-1.306.368-2.105-.484-4.797-.904-5.66a11.314 11.314 0 00-.84-1.422c-.363-.52-.721-.914-.91-.871-.36.083-.322.6-.47 1.213a.116.116 0 01-.008.035c-.245.69-.588 1.182-1.028 1.475-.975.65-5.312 1.102-6.334 1.453-.664.229-1.26 1.078-1.366 1.667-.171.967.065 2.721.488 3.458.074.129.153.254.237.377.659.965.033 1.264-.574.721a8.641 8.641 0 01-2.42-3.664l.1.009a2 2 0 01-.463-3.91C3.995 5.23 7.618 2 12.002 2zm2.688 14.159c-.48 1.112-1.495 1.879-2.67 1.879-1.174 0-2.19-.769-2.67-1.883-.058-.134.068-.171.19-.06.681.613 1.565.95 2.48.944a3.67 3.67 0 002.536-.996c.102-.096.192-.02.134.116z" fill="#199DE9"/></svg>