<svg width="20" height="19" xmlns="http://www.w3.org/2000/svg"><path d="M6.165 16.164c.77 0 1.394.635 1.394 1.418 0 .783-.624 1.418-1.394 1.418-.77 0-1.394-.635-1.394-1.418 0-.783.624-1.418 1.394-1.418zm10.034 0c.77 0 1.394.635 1.394 1.418 0 .783-.624 1.418-1.394 1.418-.77 0-1.393-.635-1.393-1.418 0-.783.624-1.418 1.393-1.418zM.001 0h1.43c1.142 0 2.14.784 2.428 1.909l.027.116.345 1.662h.005l1.12 5.459.85 4.182h10.51l1.611-7.94H5.725l-.35-1.701h12.953c.502 0 .979.23 1.296.626.318.397.443.918.341 1.42l-1.61 7.94a1.68 1.68 0 01-1.64 1.357H6.206a1.68 1.68 0 01-1.637-1.357L2.985 5.872l-.01.002-.726-3.498a.841.841 0 00-.74-.67L1.433 1.7H0V0h1.43H0z" fill="#199FE9"/></svg>