<svg width="24" height="24" xmlns="http://www.w3.org/2000/svg"><g fill="none" fill-rule="evenodd"><path d="M0 0h24v24H0z"/><path d="M17.963 2c1.175 0 2.128.94 2.128 2.1v6.825a1.052 1.052 0 01-.734.992 1.707 1.707 0 00-.676 0 2.505 2.505 0 00-1.33.746l-7.189 7.098a1.117 1.117 0 00-.335.798V23H4.128a2.142 2.142 0 01-1.505-.615A2.086 2.086 0 012 20.9V4.1C2 2.94 2.953 2 4.128 2zm-.719 12.451c.212 0 .415.084.564.233l2.049 2.021a.78.78 0 010 1.113l-5.018 4.95a.804.804 0 01-.564.232h-2.048a.793.793 0 01-.798-.788v-2.02c0-.21.084-.41.234-.558l5.017-4.95a.798.798 0 01.564-.233zm3.323-1.524l1.076 1.063a1.19 1.19 0 010 1.7 1.23 1.23 0 01-1.723 0l-1.076-1.063a1.19 1.19 0 010-1.7 1.23 1.23 0 011.723 0zm-9.8.791H5.042a.656.656 0 00-.66.652c0 .36.295.652.66.652h5.727c.365 0 .66-.292.66-.652a.656.656 0 00-.66-.652zm-.44-3.476H5.041a.656.656 0 00-.66.651c0 .36.295.652.66.652h5.286c.365 0 .66-.291.66-.652a.656.656 0 00-.66-.651zm0-3.477H5.041a.656.656 0 00-.66.651c0 .36.295.652.66.652h5.286c.365 0 .66-.292.66-.652a.656.656 0 00-.66-.651z" fill="#199DE9" fill-rule="nonzero"/></g></svg>