<svg width="34" height="34" xmlns="http://www.w3.org/2000/svg"><g fill="none" fill-rule="evenodd"><path d="M0 0h34v34H0z"/><path d="M18.5 7c4.188 0 8.062 2.71 9.454 6.472l-.026-.07a7.5 7.5 0 01-4.43 14.328l.001-2.105a5.5 5.5 0 005.173-9.618l-.195-.131a5.454 5.454 0 00-2.137-.812C25.586 11.686 22.25 9 18.5 9c-3.052 0-5.83 1.78-7.165 4.263a6.485 6.485 0 00-2.101-.258l-.001.001a6.499 6.499 0 00-3.14 12.03 5 5 0 018.962-1.961l7.477-3.959.936 1.768-7.59 4.017a5 5 0 01-9.701 2.425 8.5 8.5 0 013.917-16.305l.293.024.18-.229C12.444 8.5 15.385 7 18.5 7zM11 23a3 3 0 100 6 3 3 0 000-6z" fill="#199FE9" fill-rule="nonzero"/></g></svg>