<svg width="32" height="32" xmlns="http://www.w3.org/2000/svg"><g fill="#199FE9" fill-rule="evenodd"><path d="M25.412 2.369c1.04 0 1.882.842 1.882 1.882v12.22l-1.883 1.82V4.25H6.589v23.53l9.006-.001-.065.063-1.883 1.82H6.588a1.882 1.882 0 01-1.882-1.883V4.251c0-1.04.843-1.882 1.882-1.882h18.824zM16.59 10.94v.002l1.33 1.33-2.47 2.472h3.374v1.882h-3.765v1.57h3.765v1.881h-3.765v2.51h-1.883v-2.51H9.412v-1.882h3.764v-1.569H9.412v-1.882h3.375l-2.472-2.472 1.331-1.33 2.472 2.47 2.472-2.472zm6.469-3.866v1.882H8.94V7.075h14.12z" fill-rule="nonzero"/><path d="M17.412 29.192v-.74l9.876-9.427.743.734-9.867 9.433h-.752z" stroke="#199FE9" stroke-width=".941"/></g></svg>