<svg width="32" height="32" xmlns="http://www.w3.org/2000/svg"><path d="M23.529 3.765h1.883c1.04 0 1.882.814 1.882 1.818V28.3c0 1.004-.843 1.818-1.882 1.818H6.588c-1.04 0-1.882-.814-1.882-1.818V5.583c0-1.004.843-1.818 1.882-1.818H8.47v1.818H6.588V28.3h18.824V5.583h-1.883V3.765zm-.47 17.882v1.882H8.94v-1.882h14.12zm0-5.647v1.882H8.94V16h14.12zm0-5.647v1.882H8.94v-1.882h14.12zm-1.412-8.47c.52 0 .941.42.941.94v3.765a.94.94 0 01-.94.941H10.352a.941.941 0 01-.941-.94V2.823c0-.52.421-.942.94-.942h11.295zm-.941 1.882h-9.412v1.882h9.412V3.765z" fill="#199FE9"/></svg>