<svg width="32" height="32" xmlns="http://www.w3.org/2000/svg"><path d="M13.773 12.375c3.087 0 6.297-.679 8.225-1.973v2.356h1.787V7.6c0-3.101-5.157-4.775-10.009-4.775S3.765 4.498 3.765 7.599v14.08c0 3.102 5.156 4.776 10.008 4.776v-1.783c-5.096 0-8.225-1.744-8.225-2.993v-4.232c1.928 1.29 5.135 1.973 8.225 1.973v-1.786c-5.096 0-8.225-1.744-8.225-2.993v-4.236c1.928 1.291 5.138 1.97 8.225 1.97zm0-7.769c5.096 0 8.225 1.744 8.225 2.993 0 1.25-3.129 2.993-8.225 2.993S5.548 8.848 5.548 7.6c0-1.249 3.132-2.993 8.225-2.993zm8.002 8.747c-4.432 0-6.75 1.704-6.75 3.388v9.048c0 1.683 2.32 3.387 6.75 3.387 4.4 0 6.714-1.68 6.75-3.351h.003V16.74c-.003-1.684-2.32-3.388-6.753-3.388zm0 1.783c3.277 0 4.967 1.125 4.967 1.605s-1.69 1.605-4.967 1.605c-3.277 0-4.966-1.126-4.966-1.605 0-.48 1.69-1.605 4.966-1.605zm0 12.258c-3.277 0-4.966-1.126-4.966-1.605v-2.16c1.131.615 2.794 1.025 4.966 1.025s3.832-.41 4.967-1.026v2.16c0 .48-1.69 1.606-4.967 1.606zm0-4.526c-3.277 0-4.966-1.125-4.966-1.605v-2.16c1.131.615 2.794 1.026 4.966 1.026s3.832-.41 4.967-1.026v2.16c0 .48-1.69 1.605-4.967 1.605z" fill="#199FE9"/></svg>