<svg width="916" height="216" viewBox="0 0 916 216" fill="none" xmlns="http://www.w3.org/2000/svg">
<g clip-path="url(#clip0_1_2)">
<path d="M44.4 216.18H914.26C915.28 216.18 916.12 215.35 916.12 214.32V168.8C916.12 167.78 915.29 166.94 914.26 166.94H44.4C43.38 166.94 42.54 167.77 42.54 168.8V214.33C42.55 215.35 43.38 216.18 44.4 216.18Z" fill="#0080FF"/>
<path d="M357.04 81.63C352.16 75.31 347.16 70.56 342.02 67.4C343.86 65.82 345.74 63.98 347.65 61.87C349.56 59.76 351.63 57.2 353.88 54.16L392.22 4.56C392.88 3.64 393.04 2.62 392.71 1.5C392.38 0.38 391.36 -0.179993 389.65 -0.179993H365.15C363.31 -0.179993 362.05 0.0200037 361.4 0.410004C360.74 0.800004 360.08 1.47001 359.42 2.39001L325.43 47.84C323.98 49.69 322.59 51.2 321.28 52.38C319.96 53.57 318.51 54.49 316.93 55.15C315.35 55.81 313.5 56.24 311.4 56.43C309.29 56.63 306.66 56.73 303.49 56.73H275.63V4.17001C275.63 1.27001 274.18 -0.179993 271.28 -0.179993H249.94C246.91 -0.179993 245.39 1.27001 245.39 4.17001V133.8C245.39 136.7 246.9 138.15 249.94 138.15H271.28C274.18 138.15 275.63 136.7 275.63 133.8V79.65H305.67C311.73 79.65 316.27 80.28 319.31 81.53C322.34 82.78 325.17 85.12 327.81 88.54L364.17 135.57C364.83 136.49 365.48 137.15 366.15 137.55C366.81 137.94 367.99 138.14 369.71 138.14H395C396.98 138.14 398.03 137.45 398.16 136.06C398.29 134.68 398.09 133.66 397.57 133L357.04 81.63Z" fill="#1E2023"/>
<path d="M540.72 11.57C536.31 7.42001 530.61 4.41999 523.63 2.57999C516.65 0.729987 508.15 -0.190002 498.14 -0.190002H409.02C406.12 -0.190002 404.67 1.26 404.67 4.16V23.53C404.67 26.43 406.12 27.88 409.02 27.88H496.96C502.1 27.88 506.35 28.31 509.71 29.16C513.07 30.01 515.74 31.46 517.71 33.51C519.69 35.55 521.1 38.32 521.96 41.81C522.82 45.3 523.24 49.68 523.24 54.95V55.92H453.36V82.03H523.24V83C523.24 88.27 522.82 92.61 521.96 96.04C521.1 99.46 519.69 102.2 517.71 104.24C515.73 106.28 513.06 107.73 509.71 108.59C506.35 109.45 502.1 109.88 496.96 109.88H409.02C406.12 109.88 404.67 111.39 404.67 114.42V133.79C404.67 136.69 406.12 138.14 409.02 138.14H498.14C508.15 138.14 516.65 137.18 523.63 135.27C530.61 133.36 536.31 130.33 540.72 126.18C545.14 122.03 548.36 116.66 550.4 110.07C552.44 103.48 553.46 95.45 553.46 85.96V51.97C553.46 42.48 552.44 34.41 550.4 27.76C548.36 21.12 545.14 15.72 540.72 11.57Z" fill="#1E2023"/>
<path d="M682.9 14.83C679.61 8.76999 676.28 4.75 672.92 2.78C669.56 0.799999 665.31 -0.179993 660.17 -0.179993H648.71C644.5 -0.179993 640.81 0.809999 637.64 2.78C634.48 4.76 631.25 8.76999 627.96 14.83L563.14 133.59C562.48 134.91 562.32 135.99 562.65 136.85C562.98 137.71 563.93 138.13 565.52 138.13H591.41C593.65 138.13 595.16 137.27 595.95 135.56L653.06 29.24C653.59 28.32 654.31 27.86 655.23 27.86H656.22C657.41 27.86 658.2 28.32 658.59 29.24L716.49 135.56C717.02 136.48 717.58 137.14 718.17 137.54C718.76 137.93 719.72 138.13 721.03 138.13H745.93C747.64 138.13 748.67 137.7 748.99 136.85C749.32 135.99 749.16 134.9 748.5 133.59L682.9 14.83Z" fill="#1E2023"/>
<path d="M915.49 133.01L874.98 81.63C870.1 75.31 865.1 70.56 859.96 67.4C861.8 65.82 863.68 63.98 865.59 61.87C867.5 59.76 869.57 57.2 871.82 54.16L910.16 4.56C910.82 3.64 910.98 2.62 910.65 1.5C910.32 0.38 909.3 -0.179993 907.59 -0.179993H883.09C881.25 -0.179993 879.99 0.0200037 879.34 0.410004C878.68 0.800004 878.02 1.47001 877.36 2.39001L843.37 47.84C841.92 49.69 840.53 51.2 839.22 52.38C837.9 53.57 836.45 54.49 834.87 55.15C833.29 55.81 831.44 56.24 829.34 56.43C827.23 56.63 824.6 56.73 821.43 56.73H793.57V4.17001C793.57 1.27001 792.12 -0.179993 789.22 -0.179993H767.88C764.85 -0.179993 763.33 1.27001 763.33 4.17001V133.8C763.33 136.7 764.84 138.15 767.88 138.15H789.22C792.12 138.15 793.57 136.7 793.57 133.8V79.65H823.61C829.67 79.65 834.21 80.28 837.25 81.53C840.28 82.78 843.11 85.12 845.75 88.54L882.11 135.57C882.77 136.49 883.42 137.15 884.09 137.55C884.75 137.94 885.93 138.14 887.65 138.14H912.94C914.92 138.14 915.97 137.45 916.1 136.06C916.21 134.69 916.01 133.67 915.49 133.01Z" fill="#1E2023"/>
<path d="M156.72 50.54V26.61H97.76C92.51 26.61 88.08 27.07 84.63 27.95C81.06 28.87 78.19 30.43 76.07 32.59C73.98 34.78 72.45 37.72 71.55 41.32C70.67 44.85 70.21 49.37 70.21 54.77V83.19C70.21 88.59 70.67 93.13 71.55 96.71C72.45 100.41 73.98 103.37 76.07 105.54C78.19 107.73 81.05 109.28 84.63 110.21C88.08 111.09 92.48 111.52 97.76 111.52H156.72V88.66H225.77V113.29H190.1L190.22 114.31C190.24 114.43 190.27 114.55 190.29 114.67C190.29 114.77 190.34 114.89 190.34 115.01V134.63C190.34 137.09 189.29 138.13 186.84 138.13H96.56C86.52 138.13 77.91 137.18 70.96 135.33C64.05 133.53 58.36 130.54 54.04 126.45C49.71 122.37 46.48 116.99 44.48 110.43C42.44 103.82 41.42 95.65 41.42 86.16V81.27H-0.350006V56.64H41.42V51.73C41.42 42.25 42.44 34.13 44.48 27.58C46.47 21.09 49.71 15.74 54.04 11.65C58.37 7.56999 64.06 4.54999 70.96 2.64999C77.94 0.749994 86.55 -0.220001 96.56 -0.220001H186.84C189.25 -0.220001 190.34 0.849999 190.34 3.28V22.9C190.34 23.58 190.24 24.16 190.07 24.67L189.68 25.86H225.76V50.49H156.72V50.54Z" fill="#0080FF"/>
<path d="M97.62 182.56C98.63 182.56 99.61 182.69 100.54 182.96C101.47 183.23 102.24 183.55 102.85 183.93C103.46 184.31 103.99 184.69 104.45 185.06C104.91 185.43 105.24 185.75 105.46 186.02L105.77 186.41L103.77 188.42C103.71 188.34 103.63 188.24 103.53 188.11C103.42 187.98 103.18 187.73 102.8 187.38C102.42 187.03 102.01 186.72 101.57 186.47C101.13 186.22 100.56 185.98 99.86 185.76C99.16 185.54 98.41 185.43 97.63 185.43C95.55 185.43 93.79 186.15 92.35 187.59C90.91 189.03 90.18 190.79 90.18 192.86C90.18 194.94 90.9 196.7 92.34 198.14C93.78 199.58 95.54 200.31 97.63 200.31C98.41 200.31 99.16 200.2 99.87 199.98C100.58 199.76 101.17 199.5 101.64 199.19C102.11 198.88 102.53 198.58 102.88 198.28C103.24 197.98 103.51 197.72 103.68 197.5L103.9 197.15L105.91 199.16C105.84 199.27 105.72 199.42 105.57 199.6C105.42 199.78 105.08 200.1 104.55 200.56C104.02 201.02 103.46 201.42 102.87 201.78C102.28 202.13 101.51 202.45 100.55 202.74C99.6 203.02 98.62 203.17 97.61 203.17C94.61 203.17 92.1 202.17 90.07 200.18C88.04 198.19 87.03 195.75 87.03 192.87C87.03 189.99 88.04 187.56 90.07 185.57C92.1 183.58 94.62 182.56 97.62 182.56Z" fill="white"/>
<path d="M120.35 182.84V192.57L129.36 182.84H133.37L125.65 191.14L133.95 202.87H130.08L123.5 193.43L120.36 196.87V202.88H117.22V182.85H120.35V182.84Z" fill="white"/>
<path d="M160.1 182.84V202.87H156.96V185.7H149.67V188.84C149.67 191.72 149.53 194.12 149.25 196.06C148.97 198 148.55 199.47 147.98 200.47C147.42 201.48 146.8 202.17 146.12 202.56C145.45 202.95 144.62 203.14 143.65 203.14C143.31 203.14 142.94 203.1 142.56 203.03C142.18 202.96 141.88 202.88 141.67 202.81L141.36 202.73V199.73C141.93 199.92 142.45 200.01 142.93 200.01C143.48 200.01 143.95 199.87 144.35 199.6C144.74 199.33 145.12 198.81 145.47 198.06C145.82 197.31 146.08 196.16 146.25 194.62C146.42 193.08 146.5 191.16 146.5 188.85V182.84H160.1Z" fill="white"/>
<path d="M170.83 202.87L179.13 182.84H182.27L190.57 202.87H187.29L185.14 197.58H176.27L174.12 202.87H170.83ZM180.71 186.42L177.41 194.72H183.99L180.71 186.42Z" fill="white"/>
<path d="M198.44 200.01H199.59C199.68 199.94 199.81 199.81 199.96 199.63C200.11 199.45 200.39 199.03 200.78 198.39C201.17 197.74 201.52 197.03 201.82 196.26C202.12 195.49 202.4 194.43 202.65 193.1C202.9 191.76 203.03 190.35 203.03 188.86V182.85H216.05V200.02H218.48V207.17H215.32V202.88H201.59V207.17H198.45V200.01H198.44ZM206.16 188.85C206.16 190.34 206.04 191.74 205.8 193.06C205.56 194.38 205.28 195.44 204.94 196.25C204.61 197.06 204.27 197.77 203.93 198.37C203.6 198.97 203.31 199.4 203.06 199.65L202.71 200.01H212.86V185.71H206.14V188.85H206.16Z" fill="white"/>
<path d="M249.06 182.56C252.06 182.56 254.57 183.56 256.6 185.55C258.63 187.54 259.65 189.98 259.65 192.85C259.65 195.73 258.63 198.16 256.6 200.16C254.57 202.15 252.05 203.15 249.06 203.15C248.05 203.15 247.07 203.01 246.13 202.74C245.19 202.47 244.41 202.13 243.78 201.74C243.16 201.35 242.61 200.96 242.13 200.57C241.66 200.18 241.31 199.84 241.1 199.55L240.77 199.16L242.77 197.15C242.83 197.23 242.91 197.33 243.03 197.48C243.15 197.63 243.4 197.88 243.79 198.24C244.18 198.6 244.6 198.92 245.05 199.2C245.5 199.48 246.08 199.73 246.81 199.96C247.54 200.19 248.29 200.3 249.07 200.3C251.02 200.3 252.63 199.74 253.9 198.61C255.17 197.48 255.99 195.99 256.36 194.14H246.5V191.29H256.36C255.9 189.58 255.04 188.17 253.76 187.07C252.48 185.97 250.92 185.42 249.07 185.42C248.29 185.42 247.54 185.53 246.83 185.73C246.12 185.94 245.54 186.19 245.08 186.47C244.62 186.75 244.22 187.05 243.88 187.34C243.54 187.64 243.29 187.89 243.14 188.09L242.92 188.41L240.91 186.4C240.99 186.31 241.09 186.17 241.24 185.99C241.39 185.81 241.71 185.5 242.22 185.06C242.73 184.62 243.27 184.23 243.85 183.89C244.43 183.55 245.19 183.24 246.13 182.96C247.07 182.7 248.05 182.56 249.06 182.56Z" fill="white"/>
<path d="M286.67 182.84V202.87H283.53V185.7H276.24V188.84C276.24 191.72 276.1 194.12 275.82 196.06C275.54 198 275.12 199.47 274.55 200.47C273.99 201.48 273.37 202.17 272.69 202.56C272.02 202.95 271.19 203.14 270.22 203.14C269.88 203.14 269.51 203.1 269.13 203.03C268.75 202.96 268.45 202.88 268.24 202.81L267.93 202.73V199.73C268.5 199.92 269.02 200.01 269.5 200.01C270.05 200.01 270.52 199.87 270.92 199.6C271.31 199.33 271.69 198.81 272.04 198.06C272.39 197.31 272.65 196.16 272.82 194.62C272.99 193.08 273.07 191.16 273.07 188.85V182.84H286.67Z" fill="white"/>
<path d="M302.83 200.01H314.13V202.87H299.69V182.84H313.85V185.7H302.83V191H311.56V193.86H302.83V200.01V200.01Z" fill="white"/>
<path d="M328.85 182.84V192.57L337.86 182.84H341.87L334.15 191.14L342.45 202.87H338.58L332 193.43L328.86 196.87V202.88H325.72V182.85H328.85V182.84Z" fill="white"/>
<path d="M350.59 182.84H365.74V185.7H359.73V202.87H356.59V185.7H350.58V182.84H350.59Z" fill="white"/>
<path d="M376.48 182.84H384.48C386.39 182.84 387.99 183.47 389.28 184.72C390.57 185.97 391.21 187.49 391.21 189.29C391.21 191.09 390.57 192.6 389.28 193.85C387.99 195.1 386.39 195.72 384.48 195.72H379.62V202.87H376.48V182.84ZM384.48 185.71H379.62V192.86H384.48C385.47 192.86 386.31 192.52 387.01 191.83C387.71 191.15 388.06 190.3 388.06 189.29C388.06 188.28 387.71 187.43 387.01 186.74C386.31 186.05 385.47 185.71 384.48 185.71Z" fill="white"/>
<path d="M404.97 200.16C402.94 198.17 401.92 195.73 401.92 192.85C401.92 189.97 402.94 187.54 404.97 185.55C407 183.56 409.51 182.56 412.51 182.56C415.51 182.56 418.02 183.56 420.05 185.55C422.08 187.54 423.1 189.98 423.1 192.85C423.1 195.73 422.08 198.16 420.05 200.16C418.02 202.15 415.51 203.15 412.51 203.15C409.51 203.15 407 202.16 404.97 200.16ZM407.23 187.59C405.79 189.03 405.07 190.79 405.07 192.86C405.07 194.94 405.79 196.7 407.23 198.14C408.67 199.58 410.43 200.31 412.51 200.31C414.59 200.31 416.35 199.59 417.79 198.14C419.23 196.7 419.95 194.94 419.95 192.86C419.95 190.78 419.23 189.03 417.79 187.59C416.35 186.15 414.59 185.43 412.51 185.43C410.43 185.43 408.67 186.15 407.23 187.59Z" fill="white"/>
<path d="M451.13 182.84V202.87H447.99V194.14H438.11V202.87H434.97V182.84H438.11V191.29H447.99V182.84H451.13Z" fill="white"/>
<path d="M480.29 182.84V202.87H477.15V194.14H467.27V202.87H464.13V182.84H467.27V191.29H477.15V182.84H480.29Z" fill="white"/>
<path d="M501.02 202.87H493.3V182.84H496.44V189.99H501.02C502.93 189.99 504.53 190.62 505.81 191.87C507.09 193.12 507.74 194.64 507.74 196.44C507.74 198.24 507.1 199.75 505.81 201C504.53 202.25 502.93 202.87 501.02 202.87ZM496.44 200.01H501.02C502.01 200.01 502.85 199.67 503.55 198.98C504.25 198.3 504.6 197.45 504.6 196.44C504.6 195.43 504.25 194.58 503.55 193.89C502.85 193.2 502.01 192.86 501.02 192.86H496.44V200.01ZM513.47 182.84V202.87H510.31V182.84H513.47Z" fill="white"/>
<path d="M533.49 189.86L538.49 182.85H542.21L535.35 192.43L542.78 202.88H539.06L533.49 195.02L527.9 202.88H524.18L531.61 192.43L524.75 182.85H528.47L533.49 189.86Z" fill="white"/>
<path d="M569.66 182.84V192.57L578.67 182.84H582.68L574.96 191.14L583.26 202.87H579.39L572.81 193.43L569.67 196.87V202.88H566.53V182.85H569.66V182.84Z" fill="white"/>
<path d="M594.44 200.16C592.41 198.17 591.39 195.73 591.39 192.85C591.39 189.97 592.41 187.54 594.44 185.55C596.47 183.56 598.98 182.56 601.98 182.56C604.98 182.56 607.49 183.56 609.52 185.55C611.55 187.54 612.57 189.98 612.57 192.85C612.57 195.73 611.55 198.16 609.52 200.16C607.49 202.15 604.98 203.15 601.98 203.15C598.98 203.15 596.47 202.16 594.44 200.16ZM596.7 187.59C595.26 189.03 594.54 190.79 594.54 192.86C594.54 194.94 595.26 196.7 596.7 198.14C598.14 199.58 599.9 200.31 601.98 200.31C604.06 200.31 605.82 199.59 607.26 198.14C608.7 196.7 609.42 194.94 609.42 192.86C609.42 190.78 608.7 189.03 607.26 187.59C605.82 186.15 604.06 185.43 601.98 185.43C599.89 185.43 598.13 186.15 596.7 187.59Z" fill="white"/>
<path d="M634.87 192.58L642.59 182.85H645.31V202.88H642.17V188.3L634.86 197.45L627.57 188.3V202.88H624.43V182.85H627.14L634.87 192.58Z" fill="white"/>
<path d="M674.48 182.84V202.87H671.34V185.7H661.46V202.87H658.32V182.84H674.48Z" fill="white"/>
<path d="M689.39 200.16C687.36 198.17 686.34 195.73 686.34 192.85C686.34 189.97 687.36 187.54 689.39 185.55C691.42 183.56 693.93 182.56 696.93 182.56C699.93 182.56 702.44 183.56 704.47 185.55C706.5 187.54 707.52 189.98 707.52 192.85C707.52 195.73 706.5 198.16 704.47 200.16C702.44 202.15 699.93 203.15 696.93 203.15C693.93 203.15 691.42 202.16 689.39 200.16ZM691.64 187.59C690.2 189.03 689.48 190.79 689.48 192.86C689.48 194.94 690.2 196.7 691.64 198.14C693.08 199.58 694.84 200.31 696.92 200.31C699 200.31 700.76 199.59 702.2 198.14C703.64 196.7 704.36 194.94 704.36 192.86C704.36 190.78 703.64 189.03 702.2 187.59C700.76 186.15 699 185.43 696.92 185.43C694.84 185.43 693.08 186.15 691.64 187.59Z" fill="white"/>
<path d="M735.54 182.84V202.87H732.4V194.14H722.52V202.87H719.38V182.84H722.52V191.29H732.4V182.84H735.54Z" fill="white"/>
<path d="M751.69 200.01H762.99V202.87H748.55V182.84H762.71V185.7H751.69V191H760.42V193.86H751.69V200.01Z" fill="white"/>
<path d="M790.73 182.84V202.87H787.59V194.14H777.71V202.87H774.57V182.84H777.71V191.29H787.59V182.84H790.73Z" fill="white"/>
<path d="M801.45 182.84H816.6V185.7H810.59V202.87H807.45V185.7H801.44V182.84H801.45Z" fill="white"/>
<path d="M828.09 200.16C826.06 198.17 825.04 195.73 825.04 192.85C825.04 189.97 826.06 187.54 828.09 185.55C830.12 183.56 832.63 182.56 835.63 182.56C838.62 182.56 841.14 183.56 843.17 185.55C845.2 187.54 846.22 189.98 846.22 192.85C846.22 195.73 845.2 198.16 843.17 200.16C841.14 202.15 838.63 203.15 835.63 203.15C832.63 203.15 830.12 202.16 828.09 200.16ZM830.35 187.59C828.91 189.03 828.19 190.79 828.19 192.86C828.19 194.94 828.91 196.7 830.35 198.14C831.79 199.58 833.55 200.31 835.63 200.31C837.71 200.31 839.47 199.59 840.91 198.14C842.35 196.7 843.07 194.94 843.07 192.86C843.07 190.78 842.35 189.03 840.91 187.59C839.47 186.15 837.71 185.43 835.63 185.43C833.54 185.43 831.78 186.15 830.35 187.59Z" fill="white"/>
<path d="M866.66 202.87H858.08V182.84H866.22C867.84 182.84 869.22 183.37 870.37 184.45C871.52 185.52 872.09 186.75 872.09 188.14C872.09 188.94 871.92 189.68 871.59 190.35C871.26 191.02 870.93 191.49 870.61 191.75L870.09 192.16C870.16 192.2 870.27 192.26 870.4 192.35C870.54 192.44 870.78 192.63 871.13 192.92C871.48 193.21 871.79 193.54 872.04 193.89C872.3 194.24 872.53 194.7 872.75 195.27C872.97 195.83 873.08 196.42 873.08 197.02C873.08 198.62 872.47 200 871.24 201.15C870.02 202.3 868.49 202.87 866.66 202.87ZM866.22 185.57H861.22V191H866.22C867 191 867.65 190.74 868.17 190.23C868.69 189.71 868.95 189.07 868.95 188.29C868.95 187.51 868.69 186.87 868.17 186.35C867.66 185.83 867.01 185.57 866.22 185.57ZM861.22 200.15H866.65C867.58 200.15 868.36 199.84 869 199.21C869.64 198.58 869.95 197.8 869.95 196.87C869.95 195.94 869.64 195.16 869.01 194.52C868.38 193.89 867.6 193.57 866.66 193.57H861.23V200.15H861.22Z" fill="white"/>
</g>
<defs>
<clipPath id="clip0_1_2">
<rect width="916" height="216" fill="white"/>
</clipPath>
</defs>
</svg>
